<svg viewBox="0 0 640 400" data-background-color="white" preserveAspectRatio="xMidYMid meet" height="400" width="640" xmlns="http://www.w3.org/2000/svg" xmlns:xlink="http://www.w3.org/1999/xlink"><rect width="640" height="400" x="0" y="0" opacity="1" fill="transparent" data-fill-palette-color="background" id="background"></rect><g id="tight-bounds" transform="matrix(1,0,0,1,180.14,60.139999999999986)"><svg viewBox="0 0 279.72 279.72" height="279.72" width="279.72"><g><svg viewBox="0 0 279.72 279.72" height="279.72" width="279.72"><g><svg viewBox="0 0 279.72 279.72" height="279.72" width="279.72"><g id="textblocktransform"><svg viewBox="0 0 279.72 279.72" height="279.72" width="279.72" id="textblock"><g><svg viewBox="0 0 279.72 279.72" height="279.72" width="279.72"><g transform="matrix(1,0,0,1,57.446704652707865,57.446704652707865)"><svg viewBox="0 0 164.8265906945843 164.8265906945843" height="164.8265906945843" width="164.8265906945843"><g><circle r="82.41329534729213" cx="82.41329534729215" cy="82.41329534729215" fill="#b19dd0" data-fill-palette-color="accent"></circle><svg xmlns="http://www.w3.org/2000/svg" data-name="Layer 1" viewBox="0 0 128 128" x="24.72398860418764" y="24.723988604187646" height="115.378613486209" width="115.378613486209" class="icon-o-0" data-fill-palette-color="quaternary" id="o-0"><path d="M18.136 82.998c-4.542 11.393-4.679 20.969 0.609 26.257 2.711 2.711 6.544 3.998 11.174 3.998a41.839 41.839 0 0 0 15.084-3.387C49.847 121.133 56.521 128 64 128s14.153-6.867 18.997-18.135a41.841 41.841 0 0 0 15.084 3.387c4.628 0 8.464-1.287 11.174-3.997 5.288-5.288 5.151-14.864 0.609-26.257C121.132 78.154 128 71.479 128 64s-6.868-14.154-18.136-18.998c4.542-11.393 4.679-20.969-0.609-26.257C103.966 13.457 94.39 13.593 82.998 18.135 78.154 6.868 71.479 0 64 0 56.521 0 49.846 6.868 45.002 18.136c-11.392-4.542-20.968-4.679-26.257 0.609-5.288 5.288-5.151 14.864-0.609 26.257C6.868 49.846 0 56.521 0 64S6.868 78.154 18.136 82.998Zm3.437 23.429c-4.121-4.121-3.695-12.19 0.274-21.963a100.747 100.747 0 0 0 17.21 4.479A100.75 100.75 0 0 0 43.535 106.153C33.763 110.121 25.696 110.546 21.573 106.427Zm15.493-38.063Q35.315 66.18 33.71 64q1.604-2.179 3.356-4.364C37.027 61.078 37 62.53 37 64S37.027 66.922 37.066 68.364Zm-5.816-7.814a98.957 98.957 0 0 1-7.776-13.336A98.959 98.959 0 0 1 38.402 43.282q-0.656 4.687-1.012 9.696Q34.103 56.764 31.25 60.55ZM37.39 75.022q0.352 5.001 1.012 9.696a98.959 98.959 0 0 1-14.928-3.932 98.957 98.957 0 0 1 7.776-13.336Q34.1 71.228 37.39 75.022ZM47.736 47.736q3.382-3.382 6.856-6.436Q59.203 41.007 64 41q4.789 0 9.408 0.3 3.463 3.051 6.856 6.436 3.384 3.384 6.437 6.861Q86.993 59.206 87 64q0 4.786-0.299 9.403-3.052 3.465-6.437 6.861-3.384 3.384-6.861 6.437Q68.794 86.993 64 87q-4.786 0-9.403-0.299-3.465-3.052-6.861-6.437-3.384-3.384-6.437-6.861Q41.007 68.794 41 64q0-4.786 0.299-9.403Q44.352 51.131 47.736 47.736Zm-5.867 0.305q0.306-2.783 0.713-5.459 2.675-0.406 5.459-0.713c-1.048 0.992-2.093 1.999-3.133 3.039S42.862 46.993 41.869 48.041ZM59.625 37.067q2.189-1.756 4.375-3.361 2.184 1.608 4.375 3.361C66.929 37.027 65.474 37 64 37S61.071 37.027 59.625 37.067ZM79.959 41.869q2.783 0.306 5.459 0.713 0.406 2.675 0.713 5.459c-0.992-1.048-2-2.093-3.039-3.133S81.007 42.862 79.959 41.869Zm6.172 38.09q-0.306 2.783-0.713 5.459-2.672 0.406-5.453 0.712 1.569-1.486 3.127-3.038C84.131 82.052 85.138 81.007 86.131 79.959ZM68.364 90.934q-2.184 1.752-4.364 3.357-2.179-1.604-4.365-3.357C61.078 90.973 62.53 91 64 91S66.922 90.973 68.364 90.934ZM48.035 86.13q-2.78-0.306-5.453-0.712-0.406-2.675-0.713-5.459c0.992 1.048 2 2.093 3.039 3.133Q46.465 84.648 48.035 86.13Zm-4.753 3.468q4.685 0.655 9.691 1.012 3.786 3.288 7.573 6.143a98.939 98.939 0 0 1-13.332 7.773A98.957 98.957 0 0 1 43.282 89.598ZM64 124c-5.827 0-11.23-6.004-15.334-15.718a100.87 100.87 0 0 0 15.334-9.011 100.857 100.857 0 0 0 15.335 9.01C75.231 117.996 69.827 124 64 124Zm16.786-19.473A98.95 98.95 0 0 1 67.454 96.753q3.778-2.851 7.574-6.143 4.998-0.352 9.69-1.012A98.956 98.956 0 0 1 80.786 104.527Zm25.641 1.9c-4.121 4.122-12.19 3.696-21.963-0.273a100.752 100.752 0 0 0 4.479-17.211 100.747 100.747 0 0 0 17.21-4.479C110.122 94.237 110.547 102.306 106.427 106.427ZM90.934 59.636Q92.685 61.82 94.29 64q-1.604 2.179-3.356 4.364C90.973 66.922 91 65.47 91 64S90.973 61.078 90.934 59.636ZM90.61 52.978q-0.352-5.001-1.012-9.696a98.959 98.959 0 0 1 14.928 3.932 98.957 98.957 0 0 1-7.776 13.336Q93.9 56.772 90.61 52.978Zm0 22.044q3.287-3.785 6.14-7.572a98.957 98.957 0 0 1 7.776 13.336A98.959 98.959 0 0 1 89.598 84.718Q90.254 80.031 90.61 75.022ZM124 64c0 5.828-6.006 11.232-15.723 15.336A100.743 100.743 0 0 0 99.274 64 100.743 100.743 0 0 0 108.277 48.664C117.994 52.768 124 58.172 124 64ZM98.044 18.67c3.534 0 6.41 0.932 8.383 2.903 4.121 4.121 3.695 12.19-0.273 21.963a100.747 100.747 0 0 0-17.211-4.479 100.75 100.75 0 0 0-4.479-17.211A37.466 37.466 0 0 1 98.044 18.67ZM84.718 38.402q-4.687-0.656-9.696-1.012-3.784-3.286-7.569-6.138a99.022 99.022 0 0 1 13.333-7.779A98.949 98.949 0 0 1 84.718 38.402ZM64 4c5.828 0 11.232 6.006 15.336 15.722a100.746 100.746 0 0 0-15.337 9.004A100.755 100.755 0 0 0 48.664 19.723C52.768 10.006 58.172 4 64 4ZM47.214 23.474a99.029 99.029 0 0 1 13.333 7.778q-3.777 2.85-7.569 6.138-5.001 0.352-9.696 1.012A98.954 98.954 0 0 1 47.214 23.474ZM21.573 21.573c1.973-1.973 4.848-2.903 8.383-2.903a37.465 37.465 0 0 1 13.58 3.176 100.749 100.749 0 0 0-4.479 17.211A100.747 100.747 0 0 0 21.846 43.536C17.878 33.763 17.453 25.694 21.573 21.573ZM19.723 48.664A100.743 100.743 0 0 0 28.726 64 100.743 100.743 0 0 0 19.723 79.336C10.006 75.232 4 69.828 4 64S10.006 52.768 19.723 48.664Z" fill="#282a36" data-fill-palette-color="quaternary"></path><path d="M64 81A17 17 0 1 0 47 64 17.019 17.019 0 0 0 64 81Zm0-30A13 13 0 1 1 51 64 13.015 13.015 0 0 1 64 51Z" fill="transparent" data-fill-palette-color="quaternary"></path><path d="M64 72a8 8 0 1 0-8-8A8.009 8.009 0 0 0 64 72Zm0-12a4 4 0 1 1-4 4A4.004 4.004 0 0 1 64 60Z" fill="transparent" data-fill-palette-color="quaternary"></path></svg></g></svg></g><g><path d="M18.615 105.439l11.475 3.998-1.117 3.208-26.702-9.303 3.705-10.635c0.816-2.342 2.103-3.946 3.86-4.811 1.761-0.857 3.864-0.859 6.308-0.007v0c1.967 0.685 3.423 1.699 4.368 3.042 0.952 1.345 1.324 2.97 1.117 4.874v0l13.912-2.015-1.263 3.628-13.488 1.778zM15.856 104.478l2.588-7.427c0.443-1.273 0.456-2.375 0.038-3.305-0.416-0.937-1.238-1.62-2.466-2.048v0l-1.986-0.692c-1.222-0.426-2.287-0.401-3.195 0.076-0.912 0.467-1.59 1.337-2.033 2.61v0l-2.588 7.427z" fill="#b19dd0" data-fill-palette-color="primary"></path><path d="M63.817 56.868l-11.713 12.673-20.765-19.193 11.714-12.672 2.197 2.031-9.408 10.178 6.964 6.436 8.859-9.584 2.205 2.038-8.859 9.584 7.194 6.65 9.407-10.179z" fill="#b19dd0" data-fill-palette-color="primary"></path><path d="M108.322 32.754l-3.295 1.371-5.83-6.619-10.547 4.389 0.594 8.797-3.183 1.324-1.734-29.905 4.005-1.666zM97.263 25.07l-9.708-10.885-0.187 0.077 0.879 14.559z" fill="#b19dd0" data-fill-palette-color="primary"></path><path d="M145.448 29.246v0c-3.592-0.043-6.374-1.3-8.346-3.771-1.972-2.464-2.929-6.075-2.871-10.833v0c0.057-4.751 1.102-8.392 3.134-10.921 2.032-2.523 4.844-3.763 8.437-3.72v0c2.372 0.029 4.357 0.592 5.954 1.69 1.591 1.098 2.819 2.639 3.685 4.624v0l-2.769 1.625c-0.548-1.462-1.4-2.639-2.556-3.529-1.148-0.897-2.599-1.356-4.351-1.377v0c-1.22-0.015-2.311 0.201-3.273 0.648-0.963 0.453-1.783 1.101-2.46 1.941-0.671 0.841-1.188 1.846-1.553 3.015-0.365 1.175-0.556 2.49-0.574 3.946v0l-0.051 4.215c-0.035 2.918 0.611 5.207 1.939 6.868 1.335 1.667 3.232 2.516 5.692 2.546v0c1.806 0.022 3.321-0.428 4.546-1.35 1.231-0.915 2.139-2.138 2.723-3.668v0l2.689 1.731c-0.914 1.984-2.213 3.542-3.899 4.675-1.692 1.125-3.724 1.674-6.096 1.645z" fill="#b19dd0" data-fill-palette-color="primary"></path><path d="M210.3 21.031l-8.185-3.736-10.5 23-3.09-1.41 10.5-23.001-8.185-3.736 1.242-2.722 19.46 8.883z" fill="#b19dd0" data-fill-palette-color="primary"></path><path d="M241.439 40.697l9.198 9.36-14.941 14.681c-0.846 0.831-1.752 1.448-2.718 1.85-0.971 0.406-1.947 0.591-2.929 0.553-0.981-0.037-1.954-0.286-2.917-0.747-0.959-0.456-1.854-1.108-2.685-1.954v0c-1.535-1.562-2.352-3.23-2.451-5.004-0.099-1.783 0.412-3.49 1.531-5.119v0l2.681 1.689c-0.676 1.043-1.024 2.102-1.043 3.179-0.024 1.082 0.477 2.144 1.502 3.187v0c1.02 1.038 2.134 1.532 3.34 1.48 1.206-0.042 2.453-0.696 3.741-1.962v0l12.373-12.159-6.816-6.936z" fill="#b19dd0" data-fill-palette-color="primary"></path><path d="M249.236 103.614v0c-0.854-2.127-1.176-4.107-0.968-5.94 0.211-1.827 0.82-3.557 1.828-5.19v0l2.889 1.553c-0.854 1.418-1.375 2.818-1.561 4.2-0.19 1.391 0.022 2.849 0.635 4.375v0c0.756 1.883 1.785 3.136 3.089 3.76 1.297 0.627 2.697 0.639 4.197 0.036v0c1.257-0.505 2.073-1.268 2.447-2.289 0.374-1.022 0.414-2.479 0.119-4.373v0l-0.371-2.334c-0.41-2.631-0.312-4.802 0.294-6.513 0.604-1.717 1.922-2.983 3.955-3.799v0c1.151-0.462 2.263-0.658 3.337-0.588 1.078 0.061 2.07 0.353 2.977 0.875 0.907 0.522 1.73 1.252 2.469 2.19 0.742 0.944 1.369 2.054 1.881 3.33v0c0.796 1.983 1.115 3.826 0.957 5.531-0.156 1.711-0.741 3.337-1.757 4.877v0l-2.679-1.68c0.71-1.127 1.149-2.32 1.319-3.58 0.164-1.257-0.062-2.651-0.677-4.184v0c-0.673-1.676-1.56-2.856-2.662-3.539-1.106-0.674-2.372-0.726-3.798-0.153v0c-1.251 0.502-2.035 1.289-2.353 2.361-0.309 1.075-0.32 2.514-0.033 4.316v0l0.371 2.335c0.461 2.814 0.333 5.037-0.384 6.668-0.714 1.623-2.05 2.827-4.008 3.613v0c-1.201 0.482-2.372 0.712-3.513 0.692-1.141-0.021-2.21-0.286-3.206-0.794-0.987-0.504-1.891-1.238-2.713-2.201-0.822-0.963-1.516-2.148-2.081-3.555z" fill="#b19dd0" data-fill-palette-color="primary"></path><path d="M22.95 187.239l-1.55 0.462-1.656-5.551-6.404 1.91-0.528-1.772 14.734-4.396 2.413 8.089-1.55 0.462-1.884-6.316-5.231 1.561z" fill="#b19dd0" data-fill-palette-color="primary"></path><path d="M31.296 193.303v0l-0.818-1.949-5.658 2.375 0.899 2.144c0.404 0.963 0.979 1.592 1.724 1.886 0.736 0.291 1.517 0.262 2.343-0.085v0c1.895-0.795 2.399-2.253 1.51-4.371zM24.292 196.548l-0.074-0.177-0.853-2.032-5.593 2.347-0.716-1.706 14.179-5.95 1.49 3.552c0.688 1.641 0.826 3.048 0.413 4.223-0.416 1.169-1.304 2.038-2.665 2.61v0c-0.992 0.387-1.936 0.48-2.833 0.278-0.89-0.204-1.663-0.698-2.321-1.482v0l-4.308 6.193-0.857-2.041z" fill="#b19dd0" data-fill-palette-color="primary"></path><path d="M36.508 215.98v0c-2.097 1.207-4.077 1.631-5.939 1.273-1.863-0.359-3.322-1.455-4.378-3.29v0c-1.039-1.805-1.247-3.613-0.626-5.425 0.624-1.821 1.976-3.33 4.055-4.526v0c2.097-1.207 4.074-1.629 5.931-1.268 1.857 0.362 3.313 1.46 4.369 3.295v0c1.076 1.869 1.303 3.69 0.682 5.462-0.621 1.772-1.985 3.265-4.094 4.479zM30.588 205.694v0c-1.647 0.948-2.728 2.091-3.241 3.428-0.504 1.34-0.381 2.661 0.369 3.964v0c0.783 1.361 1.862 2.14 3.235 2.337 1.382 0.2 2.909-0.181 4.579-1.142 1.676-0.965 2.771-2.096 3.284-3.395 0.518-1.302 0.388-2.63-0.392-3.985v0c-0.773-1.343-1.857-2.119-3.253-2.327-1.389-0.211-2.916 0.162-4.581 1.12z" fill="#b19dd0" data-fill-palette-color="primary"></path><path d="M39.103 221.592l-5.148 3.935-1.124-1.47 12.218-9.336 1.411 1.847-2.809 6.995-2.924 7.146c1.136-0.944 2.877-2.313 5.222-4.105v0l5.164-3.948 1.124 1.47-12.217 9.337-1.412-1.847 2.763-6.973c0.558-1.402 1.082-2.702 1.575-3.9 0.492-1.199 0.849-2.053 1.07-2.562v0l0.323-0.743c-1.209 1.026-2.955 2.411-5.236 4.154z" fill="#b19dd0" data-fill-palette-color="primary"></path><path d="M61.175 233.185l-1.151 1.137-2.92-2.956-9.788 9.67-1.3-1.316 9.788-9.67-2.913-2.948 1.151-1.137z" fill="#b19dd0" data-fill-palette-color="primary"></path><path d="M61.108 251.129l-1.04 1.239-6.566-5.512 9.887-11.777 6.481 5.441-1.04 1.239-5.064-4.251-3.386 4.033 4.467 3.751-1.047 1.247-4.467-3.751-3.374 4.018z" fill="#b19dd0" data-fill-palette-color="primary"></path><path d="M69.405 250.909l-3.568 5.41-1.544-1.019 8.465-12.836 1.941 1.28-0.352 7.53-0.41 7.71c0.762-1.266 1.955-3.131 3.581-5.595v0l3.578-5.427 1.545 1.019-8.465 12.836-1.942-1.28 0.316-7.493c0.065-1.507 0.133-2.907 0.203-4.202 0.07-1.294 0.126-2.218 0.169-2.771v0l0.06-0.808c-0.804 1.367-1.997 3.249-3.577 5.646z" fill="#b19dd0" data-fill-palette-color="primary"></path><path d="M83.622 266.543v0l-4.191-2.015 6.661-13.858 4.11 1.975c2.041 0.981 3.412 2.422 4.114 4.322 0.699 1.891 0.563 3.845-0.406 5.862v0c-0.964 2.005-2.372 3.387-4.227 4.148-1.86 0.758-3.881 0.614-6.061-0.434zM89.474 254.112v0l-2.406-1.156-5.251 10.925 2.488 1.195c1.713 0.823 3.262 0.914 4.647 0.271 1.392-0.64 2.47-1.755 3.236-3.346v0c0.724-1.506 0.844-3.008 0.359-4.505-0.488-1.506-1.512-2.634-3.073-3.384z" fill="#b19dd0" data-fill-palette-color="primary"></path><path d="M109.557 261.604v0l-2.035-0.567-1.647 5.911 2.24 0.624c1.006 0.28 1.856 0.22 2.548-0.182 0.684-0.397 1.147-1.027 1.388-1.891v0c0.552-1.98-0.28-3.279-2.494-3.895zM107.76 269.11l-0.185-0.051-2.123-0.591-1.628 5.843-1.782-0.497 4.126-14.812 3.711 1.033c1.714 0.477 2.904 1.243 3.568 2.296 0.659 1.051 0.79 2.287 0.394 3.709v0c-0.312 1.019-0.824 1.817-1.538 2.395-0.712 0.571-1.579 0.872-2.602 0.901v0l2.187 7.221-2.133-0.594z" fill="#b19dd0" data-fill-palette-color="primary"></path><path d="M125.045 277.176l-0.269 1.595-8.453-1.427 2.558-15.162 8.344 1.408-0.27 1.595-6.519-1.1-0.876 5.194 5.752 0.97-0.271 1.605-5.752-0.97-0.873 5.173z" fill="#b19dd0" data-fill-palette-color="primary"></path><path d="M133.448 272.828v0l-0.334 0.854 5.443 0.254-0.251-0.902-2.05-7.494c-0.212 0.645-1.149 3.074-2.808 7.288zM132.516 275.233l-1.561 3.966-1.98-0.093 6.068-15.11 2.555 0.119 4.546 15.605-1.98-0.092-1.155-4.092z" fill="#b19dd0" data-fill-palette-color="primary"></path><path d="M157.802 275.929l0.148 1.936c-0.892 0.71-2.158 1.128-3.798 1.253v0c-2.305 0.176-4.231-0.39-5.777-1.698-1.553-1.307-2.423-3.181-2.609-5.62v0c-0.176-2.305 0.413-4.239 1.766-5.803 1.355-1.557 3.137-2.42 5.348-2.588v0c1.593-0.122 2.91 0.051 3.954 0.519v0l0.144 1.885c-0.692-0.299-1.309-0.502-1.851-0.609-0.543-0.114-1.247-0.138-2.115-0.072v0c-1.653 0.126-2.984 0.793-3.994 1.999-1.016 1.206-1.455 2.714-1.317 4.521v0c0.144 1.882 0.806 3.342 1.987 4.38 1.174 1.039 2.665 1.489 4.474 1.352v0c1.452-0.111 2.665-0.596 3.64-1.455z" fill="#b19dd0" data-fill-palette-color="primary"></path><path d="M168.659 261.036l0.307 1.588-4.079 0.788 2.61 13.509-1.817 0.351-2.61-13.509-4.069 0.786-0.307-1.588z" fill="#b19dd0" data-fill-palette-color="primary"></path><path d="M186.986 271.317v0l-4.365 1.602-5.3-14.434 4.28-1.571c2.126-0.78 4.115-0.76 5.967 0.06 1.843 0.817 3.151 2.275 3.922 4.375v0c0.767 2.088 0.777 4.062 0.031 5.923-0.752 1.863-2.264 3.211-4.535 4.045zM182.147 258.458v0l-2.506 0.92 4.178 11.378 2.591-0.951c1.784-0.655 2.928-1.703 3.433-3.145 0.511-1.444 0.462-2.995-0.147-4.652v0c-0.576-1.569-1.57-2.701-2.981-3.397-1.42-0.699-2.943-0.75-4.568-0.153z" fill="#b19dd0" data-fill-palette-color="primary"></path><path d="M205.638 261.129l0.73 1.443-7.649 3.871-6.943-13.72 7.55-3.821 0.731 1.443-5.9 2.986 2.379 4.699 5.204-2.633 0.735 1.452-5.205 2.634 2.369 4.681z" fill="#b19dd0" data-fill-palette-color="primary"></path><path d="M212.161 240.401l4.065 15.768-1.935 1.289-12.858-9.911 1.658-1.104 5.04 3.955 6.219 5.016c-0.568-1.922-1.292-4.492-2.172-7.711v0l-1.666-6.203z" fill="#b19dd0" data-fill-palette-color="primary"></path><path d="M229.98 243.421l1.039 1.24-6.569 5.507-9.878-11.784 6.484-5.436 1.039 1.24-5.067 4.247 3.384 4.037 4.47-3.747 1.046 1.247-4.47 3.747 3.37 4.021z" fill="#b19dd0" data-fill-palette-color="primary"></path><path d="M239.257 233.904l1.196 1.162-5.848 6.017-11.026-10.717 1.289-1.327 9.83 9.555z" fill="#b19dd0" data-fill-palette-color="primary"></path><path d="M245.265 216.171v0c1.924 1.467 3.08 3.129 3.47 4.986 0.389 1.857-0.058 3.626-1.341 5.309v0c-1.263 1.656-2.85 2.547-4.762 2.675-1.921 0.129-3.835-0.535-5.742-1.99v0c-1.924-1.467-3.078-3.127-3.461-4.98-0.384-1.853 0.066-3.62 1.349-5.303v0c1.308-1.715 2.899-2.629 4.774-2.741 1.875-0.113 3.779 0.569 5.713 2.044zM238.067 225.608v0c1.511 1.153 2.983 1.707 4.415 1.663 1.431-0.053 2.602-0.677 3.513-1.872v0c0.952-1.249 1.254-2.544 0.905-3.887-0.35-1.352-1.292-2.613-2.824-3.781-1.538-1.173-3.005-1.745-4.4-1.716-1.401 0.025-2.575 0.659-3.524 1.902v0c-0.94 1.232-1.236 2.532-0.889 3.899 0.342 1.363 1.277 2.627 2.804 3.792z" fill="#b19dd0" data-fill-palette-color="primary"></path><path d="M251.367 209.99v0l-1.195 2.042 4.887 2.859-0.934 1.596-13.272-7.765 2.037-3.481c0.899-1.536 2.004-2.517 3.315-2.944 1.314-0.418 2.603-0.258 3.865 0.48v0c1.181 0.691 1.904 1.704 2.17 3.039 0.266 1.334-0.025 2.726-0.873 4.174zM244.261 206.02v0l-1.113 1.902 5.672 3.318 1.195-2.041c0.585-1.001 0.781-1.936 0.588-2.807-0.188-0.867-0.68-1.534-1.477-2v0c-0.896-0.524-1.774-0.651-2.635-0.382-0.864 0.275-1.607 0.945-2.23 2.01z" fill="#b19dd0" data-fill-palette-color="primary"></path><path d="M263.179 195.142l1.474 0.665-3.525 7.815-14.016-6.324 3.48-7.713 1.474 0.665-2.719 6.027 4.801 2.166 2.399-5.317 1.484 0.669-2.399 5.317 4.782 2.158z" fill="#b19dd0" data-fill-palette-color="primary"></path><path d="M254.456 182.95v0l-0.655 2.009 5.835 1.9 0.72-2.211c0.324-0.993 0.3-1.845-0.072-2.554-0.367-0.701-0.977-1.19-1.829-1.467v0c-1.955-0.637-3.288 0.138-3.999 2.323zM261.878 185.069l-0.06 0.183-0.682 2.095 5.767 1.879-0.573 1.759-14.62-4.762 1.193-3.662c0.551-1.692 1.367-2.847 2.447-3.467 1.078-0.613 2.319-0.691 3.723-0.233v0c1.004 0.355 1.779 0.902 2.326 1.64 0.54 0.736 0.803 1.615 0.788 2.638v0l7.308-1.872-0.685 2.105z" fill="#b19dd0" data-fill-palette-color="primary"></path><path d="M10.403 145.856c0-1.82 1.476-3.296 3.296-3.296 1.82 0 3.296 1.476 3.296 3.296 0 1.82-1.476 3.296-3.296 3.296-1.82 0-3.296-1.476-3.296-3.296z" fill="#b19dd0" data-fill-palette-color="primary"></path><path d="M264.911 145.856c0-1.82 1.476-3.296 3.296-3.296 1.82 0 3.296 1.476 3.296 3.296 0 1.82-1.476 3.296-3.296 3.296-1.82 0-3.296-1.476-3.296-3.296z" fill="#b19dd0" data-fill-palette-color="primary"></path></g></svg></g></svg></g></svg></g></svg></g><defs></defs></svg><rect width="279.72" height="279.72" fill="none" stroke="none" visibility="hidden"></rect></g></svg>